<svg width="50" height="50" viewBox="0 0 50 50" fill="none" xmlns="http://www.w3.org/2000/svg">
<g opacity="0.5">
<path d="M6.24996 37.5C6.80249 37.5 7.3324 37.2805 7.7231 36.8898C8.1138 36.4991 8.33329 35.9692 8.33329 35.4167C8.33329 34.8641 8.1138 34.3342 7.7231 33.9435C7.3324 33.5528 6.80249 33.3333 6.24996 33.3333C5.69743 33.3333 5.16752 33.5528 4.77682 33.9435C4.38612 34.3342 4.16663 34.8641 4.16663 35.4167C4.16663 35.9692 4.38612 36.4991 4.77682 36.8898C5.16752 37.2805 5.69743 37.5 6.24996 37.5Z" fill="black" stroke="black" stroke-width="1.5" stroke-linecap="round" stroke-linejoin="round"/>
<path d="M43.75 15.3188V34.6813C43.7501 34.9044 43.6905 35.1236 43.5773 35.3159C43.4641 35.5083 43.3014 35.6668 43.1062 35.775L25.6063 45.4958C25.4207 45.5987 25.2121 45.6527 25 45.6527C24.7879 45.6527 24.5792 45.5987 24.3937 45.4958L6.89375 35.775C6.69858 35.6668 6.53594 35.5083 6.42274 35.3159C6.30954 35.1236 6.24989 34.9044 6.25 34.6813V15.3188C6.25026 15.0959 6.31008 14.8772 6.42327 14.6853C6.53645 14.4934 6.69889 14.3352 6.89375 14.2271L24.3937 4.50418C24.5792 4.4013 24.7879 4.34732 25 4.34732C25.2121 4.34732 25.4207 4.4013 25.6063 4.50418L43.1062 14.2271C43.3011 14.3352 43.4635 14.4934 43.5767 14.6853C43.6899 14.8772 43.7497 15.0959 43.75 15.3188Z" stroke="black" stroke-width="1.5" stroke-linecap="round" stroke-linejoin="round"/>
<path d="M7.34998 15.1958L24.3916 24.6625C24.5774 24.7658 24.7864 24.8199 24.9989 24.8199C25.2115 24.8199 25.4205 24.7658 25.6062 24.6625L42.7083 15.1625M25 43.75V25" stroke="black" stroke-width="1.5" stroke-linecap="round" stroke-linejoin="round"/>
</g>
</svg>
